# xmcd CD database file
#
# Track frame offsets:
#	150
#	10677
#	24918
#	36952
#	48523
#	60767
#	75591
#	87997
#	101915
#	114179
#
# Disc length: 1691 seconds
#
# Revision: 0
# Processed by: cddbd v1.5.2PL0 Copyright (c) Steve Scherf et al.
# Submitted via: CDex 1.70beta2
#
DISCID=6806990a
DTITLE=Short, Cliffy - Cdn. - ON - It's Never Too Late
DYEAR=1900
DGENRE=Country
TTITLE0=Love Is Coming Down
TTITLE1=Lately
TTITLE2=Tomorrow Necver Comes
TTITLE3=Good Old Friends
TTITLE4=You're Leaving For Good
TTITLE5=My Brightest Light
TTITLE6=Lomg Lonely Ride
TTITLE7=Until the Mailman Brings Me News
TTITLE8=Out of Site Out of Mind
TTITLE9=Nine-Eleven
EXTD=
EXTT0=
EXTT1=
EXTT2=
EXTT3=
EXTT4=
EXTT5=
EXTT6=
EXTT7=
EXTT8=
EXTT9=
PLAYORDER=
